<svg xmlns="http://www.w3.org/2000/svg" width="512" height="512" viewBox="0 0 512 512" role="img" aria-label="WeftMark logo">
<title>WeftMark</title>
<rect width="512" height="512" fill="#FFFFFF"/>
<path d="M 181,410 L 217,411 L 221,408 L 219,406 L 182,406 Z M 234,404 L 233,417 L 245,417 L 246,405 Z M 280,380 L 281,384 L 353,383 L 353,380 L 351,379 Z M 160,381 L 161,384 L 219,384 L 221,382 L 218,379 L 163,379 Z M 280,354 L 280,357 L 286,358 L 360,357 L 359,353 Z M 154,355 L 155,357 L 160,358 L 216,358 L 221,356 L 219,353 L 156,353 Z M 75,316 L 78,331 L 83,339 L 186,443 L 213,461 L 232,468 L 250,471 L 272,470 L 288,466 L 307,457 L 324,445 L 427,341 L 435,328 L 437,318 L 435,318 L 434,321 L 321,436 L 303,447 L 279,453 L 271,453 L 267,449 L 267,325 L 260,318 L 260,449 L 256,453 L 234,453 L 212,448 L 200,442 L 187,432 L 83,327 Z M 438,268 L 433,273 L 424,278 L 426,285 L 426,299 L 420,317 L 431,307 L 436,298 L 439,285 Z M 299,260 L 264,225 L 207,283 L 194,287 L 172,310 L 185,323 L 197,330 L 204,332 L 221,331 L 233,325 L 248,312 Z M 141,213 L 126,212 L 116,216 L 109,221 L 85,250 L 76,268 L 73,281 L 76,298 L 81,307 L 91,317 L 98,321 L 99,319 L 96,310 L 96,296 L 101,282 L 109,271 L 155,224 L 147,216 Z M 220,181 L 255,216 L 315,155 L 325,147 L 341,141 L 360,142 L 364,145 L 364,147 L 357,152 L 344,169 L 329,185 L 366,222 L 382,206 L 389,195 L 392,186 L 392,169 L 390,162 L 384,151 L 348,113 L 334,105 L 316,102 L 300,106 L 290,112 Z" fill="#0A3266" fill-rule="evenodd"/>
<path d="M 233,403 L 232,417 L 246,418 L 247,405 L 245,403 Z M 234,403 L 245,403 L 247,405 L 247,416 L 245,418 L 232,417 L 232,405 Z M 279,380 L 279,383 L 281,385 L 352,385 L 354,383 L 354,380 L 351,378 L 281,378 Z M 279,380 L 283,378 L 351,378 L 354,380 L 354,383 L 351,385 L 281,385 L 279,383 Z M 159,380 L 159,383 L 161,385 L 219,385 L 222,382 L 219,378 L 161,378 Z M 159,381 L 163,378 L 218,378 L 221,380 L 221,383 L 219,385 L 161,385 Z M 153,354 L 154,358 L 159,358 L 154,357 L 154,354 L 156,352 L 219,352 L 221,354 L 221,357 L 217,358 L 221,358 L 222,356 L 220,352 L 155,352 Z M 233,351 L 232,366 L 246,366 L 247,353 L 245,351 Z M 260,316 L 259,449 L 260,319 L 262,319 L 268,325 L 268,449 L 268,324 Z M 438,311 L 431,323 L 323,433 L 312,441 L 300,447 L 286,451 L 271,452 L 286,451 L 298,448 L 311,442 L 321,435 L 433,320 L 436,319 L 436,328 L 428,341 L 324,446 L 312,455 L 293,465 L 277,470 L 265,471 L 272,471 L 285,468 L 300,462 L 315,453 L 329,442 L 431,338 L 436,328 Z M 74,311 L 75,325 L 81,338 L 192,449 L 213,462 L 235,469 L 211,461 L 186,444 L 82,339 L 76,328 L 76,319 L 78,319 L 84,327 L 194,437 L 212,447 L 222,450 L 234,452 L 256,452 L 235,452 L 222,450 L 210,446 L 192,435 L 80,322 Z M 309,268 L 268,308 L 286,326 L 292,330 L 301,333 L 312,333 L 321,330 L 331,323 L 347,308 L 347,306 Z M 439,264 L 430,274 L 423,277 L 425,285 L 425,299 L 421,313 L 416,321 L 429,311 L 437,298 L 440,285 Z M 438,269 L 440,285 L 437,298 L 432,307 L 424,315 L 422,315 L 421,312 L 425,299 L 424,277 Z M 301,260 L 264,223 L 208,281 L 200,285 L 195,285 L 171,310 L 189,327 L 204,333 L 216,333 L 204,333 L 189,327 L 172,311 L 172,308 L 194,286 L 207,282 L 263,225 L 266,225 L 299,259 L 299,262 L 237,323 L 230,328 L 222,331 L 230,328 L 243,318 Z M 405,175 L 404,191 L 399,203 L 393,212 L 373,232 L 404,262 L 413,266 L 419,266 L 430,261 L 437,253 L 442,241 L 442,221 L 439,212 L 433,202 Z M 173,157 L 163,154 L 150,153 L 138,155 L 122,162 L 105,175 L 85,195 L 73,213 L 70,223 L 70,241 L 73,251 L 78,259 L 73,274 L 73,292 L 76,301 L 82,310 L 91,318 L 100,323 L 101,322 L 97,310 L 97,297 L 101,284 L 113,268 L 157,224 L 144,213 L 138,211 L 125,211 L 111,218 L 95,236 L 93,236 L 92,233 L 97,220 L 112,205 L 125,200 L 140,200 L 152,205 L 210,262 L 247,226 L 185,164 Z M 141,212 L 155,222 L 155,225 L 110,271 L 102,282 L 97,296 L 97,310 L 99,320 L 96,321 L 91,318 L 80,307 L 73,292 L 73,274 L 79,258 L 89,243 L 94,239 L 105,224 L 113,217 L 126,211 Z M 219,181 L 254,218 L 321,151 L 332,145 L 325,148 L 315,156 L 256,216 L 253,216 L 220,183 L 220,180 L 290,111 L 300,105 L 316,101 L 334,104 L 348,112 L 385,151 L 391,162 L 393,169 L 393,186 L 390,195 L 383,206 L 367,222 L 361,219 L 329,186 L 329,183 L 343,169 L 356,152 L 364,145 L 357,143 L 360,143 L 362,147 L 354,154 L 346,165 L 327,184 L 366,224 L 384,205 L 390,195 L 393,186 L 393,169 L 391,162 L 383,148 L 352,115 L 341,107 L 332,103 L 315,101 L 302,104 L 287,113 Z M 195,89 L 210,91 L 224,97 L 232,103 L 256,128 L 287,100 L 299,94 L 320,91 L 288,59 L 274,51 L 261,48 L 245,49 L 232,54 L 221,62 Z" fill="#2B65A5" fill-rule="evenodd"/>
<path d="M 278,408 L 281,412 L 329,412 L 332,409 L 330,405 L 280,405 Z M 233,377 L 231,379 L 232,392 L 245,393 L 247,391 L 247,378 Z M 166,232 L 164,232 L 115,282 L 109,294 L 108,310 L 114,325 L 137,348 L 138,336 L 143,327 L 164,303 L 200,267 Z M 304,180 L 271,215 L 364,309 L 373,320 L 378,329 L 381,347 L 406,322 L 413,310 L 416,298 L 416,286 L 414,277 L 404,275 L 391,266 L 306,180 Z M 250,135 L 220,106 L 202,99 L 190,99 L 180,102 L 170,108 L 129,149 L 150,143 L 163,143 L 173,145 L 190,154 L 211,175 Z" fill="#F18420" fill-rule="evenodd"/>
</svg>